<?xml version="1.0" encoding="UTF-8" standalone="no"?>
<!-- Created with Inkscape (http://www.inkscape.org/) -->

<svg
   xmlns:dc="http://purl.org/dc/elements/1.1/"
   xmlns:cc="http://creativecommons.org/ns#"
   xmlns:rdf="http://www.w3.org/1999/02/22-rdf-syntax-ns#"
   xmlns:svg="http://www.w3.org/2000/svg"
   xmlns="http://www.w3.org/2000/svg"
   xmlns:sodipodi="http://sodipodi.sourceforge.net/DTD/sodipodi-0.dtd"
   xmlns:inkscape="http://www.inkscape.org/namespaces/inkscape"
   width="512"
   height="512"
   id="svg2"
   version="1.1"
   inkscape:version="0.48.4 r9939"
   sodipodi:docname="ic_input_invert.svg"
   inkscape:export-filename="/home/ritze/Code/org.sudowars/Sudowars/res/drawable-xlarge/ic_input_delete.png"
   inkscape:export-xdpi="90"
   inkscape:export-ydpi="90">
  <defs
     id="defs4">
    <clipPath
       clipPathUnits="userSpaceOnUse"
       id="clipPath1562">
      <path
         inkscape:connector-curvature="0"
         d="M 0,96 96,96 96,0 0,0 0,96 z"
         id="path1564" />
    </clipPath>
  </defs>
  <sodipodi:namedview
     id="base"
     pagecolor="#ffffff"
     bordercolor="#666666"
     borderopacity="1.0"
     inkscape:pageopacity="0.0"
     inkscape:pageshadow="2"
     inkscape:zoom="0.98994949"
     inkscape:cx="-47.969516"
     inkscape:cy="220.99838"
     inkscape:document-units="px"
     inkscape:current-layer="layer1"
     showgrid="false"
     inkscape:window-width="1920"
     inkscape:window-height="1016"
     inkscape:window-x="0"
     inkscape:window-y="27"
     inkscape:window-maximized="1"
     inkscape:snap-page="false" />
  <metadata
     id="metadata7">
    <rdf:RDF>
      <cc:Work
         rdf:about="">
        <dc:format>image/svg+xml</dc:format>
        <dc:type
           rdf:resource="http://purl.org/dc/dcmitype/StillImage" />
        <dc:title></dc:title>
      </cc:Work>
    </rdf:RDF>
  </metadata>
  <g
     inkscape:label="Ebene 1"
     inkscape:groupmode="layer"
     id="layer1"
     transform="translate(0,-540.36218)">
    <g
       id="g3990" />
    <g
       id="g1558"
       transform="matrix(2.0888867,2.2301996,2.2301996,-2.0888867,46.647044,787.80027)"
       style="fill:#ffffff">
      <g
         id="g1560"
         clip-path="url(#clipPath1562)"
         style="fill:#ffffff">
        <g
           id="g1566"
           transform="translate(58.7051,16.8896)"
           style="fill:#ffffff">
          <path
             d="m 0,0 c -3.193,-1.001 -6.51,-1.506 -9.805,-1.506 -5.369,0 -10.695,1.384 -15.508,3.973 l -7.267,-7.765 -1.931,21.513 22.774,0.766 -8.187,-8.763 C -14.385,5.781 -8.107,5.397 -2.273,7.237 8.805,10.735 16.012,21.259 15.254,32.813 l 7.562,0.496 C 23.807,18.257 14.426,4.559 0,0 m 0.281,54.172 c -5.547,2.447 -11.825,2.83 -17.658,0.982 -11.08,-3.488 -18.276,-14.001 -17.529,-25.577 l -7.561,-0.493 c -0.98,15.07 8.4,28.758 22.805,33.307 8.441,2.659 17.58,1.739 25.344,-2.456 l 7.257,7.753 1.932,-21.512 -22.787,-0.758 8.197,8.754 z"
             style="fill:#ffffff;fill-opacity:1;fill-rule:evenodd;stroke:none"
             id="path1568"
             inkscape:connector-curvature="0" />
        </g>
      </g>
    </g>
  </g>
</svg>
